<svg width="64" height="64" viewBox="0 0 64 64" fill="none" xmlns="http://www.w3.org/2000/svg">
<rect width="64" height="64" rx="8" fill="#314057"/>
<path d="M14.5 20.25V24H24.7145C25.046 24 25.3639 23.8683 25.5983 23.6339L28.9822 20.25L25.5983 16.8661C25.3639 16.6317 25.046 16.5 24.7145 16.5H18.25C16.1789 16.5 14.5 18.1789 14.5 20.25ZM12 20.25C12 16.7982 14.7982 14 18.25 14H24.7145C25.709 14 26.6629 14.3951 27.3661 15.0983L31.2678 19H45.75C49.2018 19 52 21.7982 52 25.25V42.75C52 46.2018 49.2018 49 45.75 49H18.25C14.7982 49 12 46.2018 12 42.75V20.25ZM14.5 26.5V42.75C14.5 44.8211 16.1789 46.5 18.25 46.5H45.75C47.8211 46.5 49.5 44.8211 49.5 42.75V25.25C49.5 23.1789 47.8211 21.5 45.75 21.5H31.2678L27.3661 25.4017C26.6629 26.1049 25.709 26.5 24.7145 26.5H14.5Z" fill="#242424"/>
</svg>
